<mxfile host="app.diagrams.net" modified="2024-04-01T13:48:35.435Z" agent="Mozilla/5.0 (Windows NT 10.0; Win64; x64) AppleWebKit/537.36 (KHTML, like Gecko) Chrome/123.0.0.0 Safari/537.36" etag="HXM6jNyOnLnidccb_F2E" version="24.2.0" type="github">
  <diagram id="C5RBs43oDa-KdzZeNtuy" name="Page-1">
    <mxGraphModel dx="1191" dy="617" grid="1" gridSize="10" guides="1" tooltips="1" connect="1" arrows="1" fold="1" page="1" pageScale="1" pageWidth="827" pageHeight="1169" math="0" shadow="0">
      <root>
        <mxCell id="WIyWlLk6GJQsqaUBKTNV-0" />
        <mxCell id="WIyWlLk6GJQsqaUBKTNV-1" parent="WIyWlLk6GJQsqaUBKTNV-0" />
        <mxCell id="sHVvQZozExjpLkswfSS9-1" style="edgeStyle=orthogonalEdgeStyle;rounded=0;orthogonalLoop=1;jettySize=auto;html=1;exitX=0.5;exitY=1;exitDx=0;exitDy=0;" edge="1" parent="WIyWlLk6GJQsqaUBKTNV-1" source="sHVvQZozExjpLkswfSS9-0" target="sHVvQZozExjpLkswfSS9-2">
          <mxGeometry relative="1" as="geometry">
            <mxPoint x="414" y="100" as="targetPoint" />
          </mxGeometry>
        </mxCell>
        <mxCell id="sHVvQZozExjpLkswfSS9-0" value="&lt;span id=&quot;selected_text&quot;&gt;&lt;/span&gt;(0) calFactorial(int n)" style="rounded=1;whiteSpace=wrap;html=1;" vertex="1" parent="WIyWlLk6GJQsqaUBKTNV-1">
          <mxGeometry x="354" y="10" width="120" height="50" as="geometry" />
        </mxCell>
        <mxCell id="sHVvQZozExjpLkswfSS9-4" style="edgeStyle=orthogonalEdgeStyle;rounded=0;orthogonalLoop=1;jettySize=auto;html=1;exitX=0.5;exitY=1;exitDx=0;exitDy=0;" edge="1" parent="WIyWlLk6GJQsqaUBKTNV-1" source="sHVvQZozExjpLkswfSS9-2" target="sHVvQZozExjpLkswfSS9-5">
          <mxGeometry relative="1" as="geometry">
            <mxPoint x="414" y="200" as="targetPoint" />
          </mxGeometry>
        </mxCell>
        <mxCell id="sHVvQZozExjpLkswfSS9-2" value="&lt;span id=&quot;selected_text&quot;&gt;&lt;/span&gt;&lt;span id=&quot;selected_text&quot;&gt;&lt;/span&gt;(1) result = 1&lt;div&gt;i = 1&lt;/div&gt;" style="rounded=1;whiteSpace=wrap;html=1;" vertex="1" parent="WIyWlLk6GJQsqaUBKTNV-1">
          <mxGeometry x="354" y="110" width="120" height="40" as="geometry" />
        </mxCell>
        <mxCell id="sHVvQZozExjpLkswfSS9-6" style="edgeStyle=orthogonalEdgeStyle;rounded=0;orthogonalLoop=1;jettySize=auto;html=1;exitX=0.5;exitY=1;exitDx=0;exitDy=0;" edge="1" parent="WIyWlLk6GJQsqaUBKTNV-1" source="sHVvQZozExjpLkswfSS9-5">
          <mxGeometry relative="1" as="geometry">
            <mxPoint x="414" y="290" as="targetPoint" />
          </mxGeometry>
        </mxCell>
        <mxCell id="sHVvQZozExjpLkswfSS9-14" style="edgeStyle=orthogonalEdgeStyle;rounded=0;orthogonalLoop=1;jettySize=auto;html=1;exitX=1;exitY=0.5;exitDx=0;exitDy=0;entryX=1;entryY=0.5;entryDx=0;entryDy=0;" edge="1" parent="WIyWlLk6GJQsqaUBKTNV-1" source="sHVvQZozExjpLkswfSS9-5" target="sHVvQZozExjpLkswfSS9-13">
          <mxGeometry relative="1" as="geometry">
            <Array as="points">
              <mxPoint x="540" y="215" />
              <mxPoint x="540" y="390" />
            </Array>
          </mxGeometry>
        </mxCell>
        <mxCell id="sHVvQZozExjpLkswfSS9-5" value="&lt;span id=&quot;selected_text&quot;&gt;&lt;/span&gt;&lt;span id=&quot;selected_text&quot;&gt;&lt;/span&gt;(2) i &amp;lt;= n" style="rhombus;whiteSpace=wrap;html=1;" vertex="1" parent="WIyWlLk6GJQsqaUBKTNV-1">
          <mxGeometry x="374" y="190" width="80" height="50" as="geometry" />
        </mxCell>
        <mxCell id="sHVvQZozExjpLkswfSS9-9" style="edgeStyle=orthogonalEdgeStyle;rounded=0;orthogonalLoop=1;jettySize=auto;html=1;exitX=0;exitY=0.5;exitDx=0;exitDy=0;" edge="1" parent="WIyWlLk6GJQsqaUBKTNV-1" source="sHVvQZozExjpLkswfSS9-8" target="sHVvQZozExjpLkswfSS9-10">
          <mxGeometry relative="1" as="geometry">
            <mxPoint x="280" y="305" as="targetPoint" />
          </mxGeometry>
        </mxCell>
        <mxCell id="sHVvQZozExjpLkswfSS9-8" value="&lt;span id=&quot;selected_text&quot;&gt;&lt;/span&gt;&lt;span id=&quot;selected_text&quot;&gt;&lt;/span&gt;&lt;span id=&quot;selected_text&quot;&gt;&lt;/span&gt;(3) result = result * i" style="rounded=1;whiteSpace=wrap;html=1;" vertex="1" parent="WIyWlLk6GJQsqaUBKTNV-1">
          <mxGeometry x="354" y="290" width="120" height="30" as="geometry" />
        </mxCell>
        <mxCell id="sHVvQZozExjpLkswfSS9-11" style="edgeStyle=orthogonalEdgeStyle;rounded=0;orthogonalLoop=1;jettySize=auto;html=1;exitX=0.5;exitY=0;exitDx=0;exitDy=0;entryX=0;entryY=0.5;entryDx=0;entryDy=0;" edge="1" parent="WIyWlLk6GJQsqaUBKTNV-1" source="sHVvQZozExjpLkswfSS9-10" target="sHVvQZozExjpLkswfSS9-5">
          <mxGeometry relative="1" as="geometry" />
        </mxCell>
        <mxCell id="sHVvQZozExjpLkswfSS9-10" value="&lt;span id=&quot;selected_text&quot;&gt;&lt;/span&gt;&lt;span id=&quot;selected_text&quot;&gt;&lt;/span&gt;(4) i++" style="rounded=1;whiteSpace=wrap;html=1;" vertex="1" parent="WIyWlLk6GJQsqaUBKTNV-1">
          <mxGeometry x="220" y="290" width="80" height="30" as="geometry" />
        </mxCell>
        <mxCell id="sHVvQZozExjpLkswfSS9-12" value="&lt;b&gt;&lt;span id=&quot;selected_text&quot;&gt;&lt;/span&gt;T&lt;/b&gt;" style="text;html=1;align=center;verticalAlign=middle;resizable=0;points=[];autosize=1;strokeColor=none;fillColor=none;" vertex="1" parent="WIyWlLk6GJQsqaUBKTNV-1">
          <mxGeometry x="384" y="240" width="30" height="30" as="geometry" />
        </mxCell>
        <mxCell id="sHVvQZozExjpLkswfSS9-13" value="&lt;span id=&quot;selected_text&quot;&gt;&lt;/span&gt;&lt;span id=&quot;selected_text&quot;&gt;&lt;/span&gt;(5) return result" style="rounded=1;whiteSpace=wrap;html=1;" vertex="1" parent="WIyWlLk6GJQsqaUBKTNV-1">
          <mxGeometry x="354" y="370" width="120" height="40" as="geometry" />
        </mxCell>
        <mxCell id="sHVvQZozExjpLkswfSS9-15" value="&lt;b&gt;&lt;span id=&quot;selected_text&quot;&gt;&lt;/span&gt;F&lt;/b&gt;" style="text;html=1;align=center;verticalAlign=middle;resizable=0;points=[];autosize=1;strokeColor=none;fillColor=none;" vertex="1" parent="WIyWlLk6GJQsqaUBKTNV-1">
          <mxGeometry x="454" y="190" width="30" height="30" as="geometry" />
        </mxCell>
      </root>
    </mxGraphModel>
  </diagram>
</mxfile>
